<?xml version="1.0" standalone="no"?><!DOCTYPE svg PUBLIC "-//W3C//DTD SVG 1.1//EN" "http://www.w3.org/Graphics/SVG/1.1/DTD/svg11.dtd"><svg xmlns="http://www.w3.org/2000/svg" version="1.1" width="799.5" height="480.167" xmlns:xlink="http://www.w3.org/1999/xlink" xlink="http://www.w3.org/1999/xlink" style="position:relative;overflow:hidden;" viewBox="229.417 166.833 799.5 480.167"><defs/><g><g width="149.5" height="74.667" transform="scale(1,1) translate(241.917,287.667)"><g stroke="#CEE7E9" stroke-opacity="1" stroke-width="1" stroke-dasharray="none" width="149.5" height="74.667" transform="scale(1,1) translate(0,0)" fill="#CEE7E9" fill-opacity="1"><rect width="149.5" height="74.667"/></g><g width="144.5" height="69.66666666666666" transform="scale(1,1) translate(2.5,2.5)"><text width="144.5" height="15.624999046325684" transform="scale(1,1) translate(0,27.020833810170487)" xml:space="preserve"><tspan xml:space="preserve" text-rendering="optimizeSpeed" font-size="13.88888888888889" font-weight="normal" font-style="normal" text-decoration="none" fill="#333333" opacity="1" x="52.579" text-anchor="start" y="13.021" textLength="39.34299850463867" style="font-family: Arial, Helvetica Neue, Helvetica, sans-serif;">Admin</tspan></text></g></g><g width="166.417" height="74.667" transform="scale(1,1) translate(716.917,204.333)"><g stroke="#CEE7E9" stroke-opacity="1" stroke-width="1" stroke-dasharray="none" width="166.417" height="74.667" transform="scale(1,1) translate(0,0)" fill="#CEE7E9" fill-opacity="1"><rect width="166.417" height="74.667"/></g><g width="161.41666698455822" height="69.66666666666666" transform="scale(1,1) translate(2.5,2.5)"><text width="161.41666698455822" height="15.624999046325684" transform="scale(1,1) translate(0,27.020833810170487)" xml:space="preserve"><tspan xml:space="preserve" text-rendering="optimizeSpeed" font-size="13.88888888888889" font-weight="normal" font-style="normal" text-decoration="none" fill="#333333" opacity="1" x="56.401" text-anchor="start" y="13.021" textLength="48.614501953125" style="font-family: Arial, Helvetica Neue, Helvetica, sans-serif;">Teacher</tspan></text></g></g><g width="183.333" height="83.333" transform="scale(1,1) translate(508.333,433.333)"><g stroke="#CEE7E9" stroke-opacity="1" stroke-width="1" stroke-dasharray="none" width="183.333" height="83.333" transform="scale(1,1) translate(0,0)" fill="#CEE7E9" fill-opacity="1"><rect width="183.333" height="83.333"/></g><g width="178.33333357175184" height="78.33333333333331" transform="scale(1,1) translate(2.5,2.5)"><text width="178.33333357175184" height="31.249998092651367" transform="scale(1,1) translate(0,23.541667620340974)" xml:space="preserve"><tspan xml:space="preserve" text-rendering="optimizeSpeed" font-size="13.88888888888889" font-weight="normal" font-style="normal" text-decoration="none" fill="#333333" opacity="1" x="42.484" text-anchor="start" y="13.021" textLength="93.36590576171875" style="font-family: Arial, Helvetica Neue, Helvetica, sans-serif;">Online learning</tspan><tspan xml:space="preserve" text-rendering="optimizeSpeed" font-size="13.88888888888889" font-weight="normal" font-style="normal" text-decoration="none" fill="#333333" opacity="1" x="67.187" text-anchor="start" y="28.646" textLength="43.95841979980469" style="font-family: Arial, Helvetica Neue, Helvetica, sans-serif;">system</tspan></text></g></g><g width="149.5" height="74.667" transform="scale(1,1) translate(866.917,504.333)"><g stroke="#CEE7E9" stroke-opacity="1" stroke-width="1" stroke-dasharray="none" width="149.5" height="74.667" transform="scale(1,1) translate(0,0)" fill="#CEE7E9" fill-opacity="1"><rect width="149.5" height="74.667"/></g><g width="144.5" height="69.66666666666666" transform="scale(1,1) translate(2.5,2.5)"><text width="144.5" height="15.624999046325684" transform="scale(1,1) translate(0,27.020833810170487)" xml:space="preserve"><tspan xml:space="preserve" text-rendering="optimizeSpeed" font-size="13.88888888888889" font-weight="normal" font-style="normal" text-decoration="none" fill="#333333" opacity="1" x="48.326" text-anchor="start" y="13.021" textLength="47.84867858886719" style="font-family: Arial, Helvetica Neue, Helvetica, sans-serif;">Student</tspan></text></g></g><g width="520.833" height="83.333" transform="scale(1,1) translate(279.292,204.333)"><g transform="scale(1,1) translate(0,0)" fill="#545454" stroke="#545454" stroke-opacity="1"><path d="M 0 83.333 L 0 -25 L 520.833 -25 L 520.833 -10" fill="none" stroke-width="1" stroke-dasharray="none"/><g><g stroke-dasharray="none"><path d="M525.833,-10L520.833,0L515.833,-10z" stroke="none" fill-opacity="1"/></g></g></g></g><g width="625" height="216.667" transform="scale(1,1) translate(279.292,362.333)"><g transform="scale(1,1) translate(0,0)" fill="#545454" stroke="#545454" stroke-opacity="1"><path d="M 0 0 L 0 272.167 L 625 272.167 L 625 226.667" fill="none" stroke-width="1" stroke-dasharray="none"/><g><g stroke-dasharray="none"><path d="M620,226.667L625,216.667L630,226.667z" stroke="none" fill-opacity="1"/></g></g></g></g><g width="154.292" height="133.5" transform="scale(1,1) translate(354.042,362.333)"><g transform="scale(1,1) translate(0,0)" fill="#545454" stroke="#545454" stroke-opacity="1"><path d="M 0 0 L 0 133.5 L 144.292 133.5" fill="none" stroke-width="1" stroke-dasharray="none"/><g><g stroke-dasharray="none"><path d="M144.292,128.5L154.292,133.5L144.292,138.5z" stroke="none" fill-opacity="1"/></g></g></g></g><g width="162.75" height="89.667" transform="scale(1,1) translate(391.417,343.667)"><g transform="scale(1,1) translate(0,0)" fill="#545454" stroke="#545454" stroke-opacity="1"><path d="M 0 0 L 162.75 0 L 162.75 79.667" fill="none" stroke-width="1" stroke-dasharray="none"/><g><g stroke-dasharray="none"><path d="M167.75,79.667L162.75,89.667L157.75,79.667z" stroke="none" fill-opacity="1"/></g></g></g></g><g width="116.917" height="191.667" transform="scale(1,1) translate(600,241.667)"><g transform="scale(1,1) translate(0,0)" fill="#545454" stroke="#545454" stroke-opacity="1"><path d="M 116.917 0 L 0 0 L 0 181.667" fill="none" stroke-width="1" stroke-dasharray="none"/><g><g stroke-dasharray="none"><path d="M5,181.667L0,191.667L-5,181.667z" stroke="none" fill-opacity="1"/></g></g></g></g><g width="150.312" height="196" transform="scale(1,1) translate(691.417,279)"><g transform="scale(1,1) translate(0,0)" fill="#545454" stroke="#545454" stroke-opacity="1"><path d="M 150.312 0 L 150.312 196 L 10 196" fill="none" stroke-width="1" stroke-dasharray="none"/><g><g stroke-dasharray="none"><path d="M10,201L0,196L10,191z" stroke="none" fill-opacity="1"/></g></g></g></g><g width="221.083" height="25" transform="scale(1,1) translate(645.833,516.667)"><g transform="scale(1,1) translate(0,0)" fill="#545454" stroke="#545454" stroke-opacity="1"><path d="M 221.083 25 L 0 25 L 0 10" fill="none" stroke-width="1" stroke-dasharray="none"/><g><g stroke-dasharray="none"><path d="M-5,10L0,0L5,10z" stroke="none" fill-opacity="1"/></g></g></g></g><g width="341.667" height="62.333" transform="scale(1,1) translate(600,516.667)"><g transform="scale(1,1) translate(0,0)" fill="#545454" stroke="#545454" stroke-opacity="1"><path d="M 341.667 62.333 L 341.667 87.333 L 0 87.333 L 0 10" fill="none" stroke-width="1" stroke-dasharray="none"/><g><g stroke-dasharray="none"><path d="M-5,10L0,0L5,10z" stroke="none" fill-opacity="1"/></g></g></g></g><g width="156.606" height="15.625" transform="scale(1,1) translate(471.697,192.188)"><g stroke="#545454" stroke-opacity="1" stroke-width="0" stroke-dasharray="none" width="156.606" height="15.625" transform="scale(1,1) translate(0,0)" fill="none"><rect width="156.606" height="15.625"/></g><g width="156.6061248779297" height="15.624999046325684" transform="scale(1,1) translate(0,0)"><text width="156.6061248779297" height="15.624999046325684" transform="scale(1,1) translate(0,0)" xml:space="preserve"><tspan xml:space="preserve" text-rendering="optimizeSpeed" font-size="13.88888888888889" font-weight="normal" font-style="normal" text-decoration="none" fill="#333333" opacity="1" x="0" text-anchor="start" y="13.021" textLength="156.6061248779297" style="font-family: Arial, Helvetica Neue, Helvetica, sans-serif;">Registration Confirmation</tspan></text></g></g><g width="76.917" height="16.146" transform="scale(1,1) translate(403.208,283.594)"><g stroke="#545454" stroke-opacity="1" stroke-width="0" stroke-dasharray="none" width="76.917" height="16.146" transform="scale(1,1) translate(0,0)" fill="none"><rect width="76.917" height="16.146"/></g><g width="76.91704559326172" height="16.145832866430283" transform="scale(1,1) translate(0,0)"><text width="76.91704559326172" height="15.624999046325684" transform="scale(1,1) translate(0,0.2604169100522995)" xml:space="preserve"><tspan xml:space="preserve" text-rendering="optimizeSpeed" font-size="13.88888888888889" font-weight="normal" font-style="normal" text-decoration="none" fill="#333333" opacity="1" x="0" text-anchor="start" y="13.021" textLength="76.91704559326172" style="font-family: Arial, Helvetica Neue, Helvetica, sans-serif;">Add Teacher</tspan></text></g></g><g width="76.402" height="16.667" transform="scale(1,1) translate(386.799,475)"><g stroke="#545454" stroke-opacity="1" stroke-width="0" stroke-dasharray="none" width="76.402" height="16.667" transform="scale(1,1) translate(0,0)" fill="none"><rect width="76.402" height="16.667"/></g><g width="76.40200805664062" height="16.666666666666686" transform="scale(1,1) translate(0,0)"><text width="76.40200805664062" height="15.624999046325684" transform="scale(1,1) translate(0,0.520833810170501)" xml:space="preserve"><tspan xml:space="preserve" text-rendering="optimizeSpeed" font-size="13.88888888888889" font-weight="normal" font-style="normal" text-decoration="none" fill="#333333" opacity="1" x="0" text-anchor="start" y="13.021" textLength="76.40200805664062" style="font-family: Arial, Helvetica Neue, Helvetica, sans-serif;">Add Student</tspan></text></g></g><g width="156.606" height="16.667" transform="scale(1,1) translate(396.697,608.333)"><g stroke="#545454" stroke-opacity="1" stroke-width="0" stroke-dasharray="none" width="156.606" height="16.667" transform="scale(1,1) translate(0,0)" fill="none"><rect width="156.606" height="16.667"/></g><g width="156.6061248779297" height="16.666666666666742" transform="scale(1,1) translate(0,0)"><text width="156.6061248779297" height="15.624999046325684" transform="scale(1,1) translate(0,0.5208338101705294)" xml:space="preserve"><tspan xml:space="preserve" text-rendering="optimizeSpeed" font-size="13.88888888888889" font-weight="normal" font-style="normal" text-decoration="none" fill="#333333" opacity="1" x="0" text-anchor="start" y="13.021" textLength="156.6061248779297" style="font-family: Arial, Helvetica Neue, Helvetica, sans-serif;">Registration Confirmation</tspan></text></g></g><g width="84.088" height="15.625" transform="scale(1,1) translate(674.623,575.521)"><g stroke="#545454" stroke-opacity="1" stroke-width="0" stroke-dasharray="none" width="84.088" height="15.625" transform="scale(1,1) translate(0,0)" fill="none"><rect width="84.088" height="15.625"/></g><g width="84.08758544921875" height="15.624999046325684" transform="scale(1,1) translate(0,0)"><text width="84.08758544921875" height="15.624999046325684" transform="scale(1,1) translate(0,0)" xml:space="preserve"><tspan xml:space="preserve" text-rendering="optimizeSpeed" font-size="13.88888888888889" font-weight="normal" font-style="normal" text-decoration="none" fill="#333333" opacity="1" x="0" text-anchor="start" y="13.021" textLength="84.08758544921875" style="font-family: Arial, Helvetica Neue, Helvetica, sans-serif;">Enroll Course</tspan></text></g></g><g width="89.516" height="15.625" transform="scale(1,1) translate(705.242,517.188)"><g stroke="#545454" stroke-opacity="1" stroke-width="0" stroke-dasharray="none" width="89.516" height="15.625" transform="scale(1,1) translate(0,0)" fill="none"><rect width="89.516" height="15.625"/></g><g width="89.51634216308594" height="15.624999046325684" transform="scale(1,1) translate(0,0)"><text width="89.51634216308594" height="15.624999046325684" transform="scale(1,1) translate(0,0)" xml:space="preserve"><tspan xml:space="preserve" text-rendering="optimizeSpeed" font-size="13.88888888888889" font-weight="normal" font-style="normal" text-decoration="none" fill="#333333" opacity="1" x="0" text-anchor="start" y="13.021" textLength="89.51634216308594" style="font-family: Arial, Helvetica Neue, Helvetica, sans-serif;">Login Request</tspan></text></g></g><g width="74.064" height="15.625" transform="scale(1,1) translate(862.968,467.188)"><g stroke="#545454" stroke-opacity="1" stroke-width="0" stroke-dasharray="none" width="74.064" height="15.625" transform="scale(1,1) translate(0,0)" fill="none"><rect width="74.064" height="15.625"/></g><g width="74.06377410888672" height="15.624999046325684" transform="scale(1,1) translate(0,0)"><text width="74.06377410888672" height="15.624999046325684" transform="scale(1,1) translate(0,0)" xml:space="preserve"><tspan xml:space="preserve" text-rendering="optimizeSpeed" font-size="13.88888888888889" font-weight="normal" font-style="normal" text-decoration="none" fill="#333333" opacity="1" x="0" text-anchor="start" y="13.021" textLength="74.06377410888672" style="font-family: Arial, Helvetica Neue, Helvetica, sans-serif;">Registration</tspan></text></g></g><g width="74.064" height="41.667" transform="scale(1,1) translate(604.635,295.833)"><g stroke="#545454" stroke-opacity="1" stroke-width="0" stroke-dasharray="none" width="74.064" height="41.667" transform="scale(1,1) translate(0,0)" fill="none"><rect width="74.064" height="41.667"/></g><g width="74.06377410888672" height="41.666666666666686" transform="scale(1,1) translate(0,0)"><text width="74.06377410888672" height="15.624999046325684" transform="scale(1,1) translate(0,13.020833810170501)" xml:space="preserve"><tspan xml:space="preserve" text-rendering="optimizeSpeed" font-size="13.88888888888889" font-weight="normal" font-style="normal" text-decoration="none" fill="#333333" opacity="1" x="0" text-anchor="start" y="13.021" textLength="74.06377410888672" style="font-family: Arial, Helvetica Neue, Helvetica, sans-serif;">Registration</tspan></text></g></g><g width="51.698" height="31.25" transform="scale(1,1) translate(774.151,342.708)"><g stroke="#545454" stroke-opacity="1" stroke-width="0" stroke-dasharray="none" width="51.698" height="31.25" transform="scale(1,1) translate(0,0)" fill="none"><rect width="51.698" height="31.25"/></g><g width="51.698265075683594" height="31.249998092651367" transform="scale(1,1) translate(0,0)"><text width="51.698265075683594" height="31.249998092651367" transform="scale(1,1) translate(0,0)" xml:space="preserve"><tspan xml:space="preserve" text-rendering="optimizeSpeed" font-size="13.88888888888889" font-weight="normal" font-style="normal" text-decoration="none" fill="#333333" opacity="1" x="0" text-anchor="start" y="13.021" textLength="33.96171188354492" style="font-family: Arial, Helvetica Neue, Helvetica, sans-serif;">Login</tspan><tspan xml:space="preserve" text-rendering="optimizeSpeed" font-size="13.88888888888889" font-weight="normal" font-style="normal" text-decoration="none" fill="#333333" opacity="1" x="0" text-anchor="start" y="28.646" textLength="51.698265075683594" style="font-family: Arial, Helvetica Neue, Helvetica, sans-serif;">Request</tspan></text></g></g><g width="67.104" height="175.167" transform="scale(1,1) translate(691.417,279)"><g transform="scale(1,1) translate(0,0)" fill="#545454" stroke="#545454" stroke-opacity="1"><path d="M 67.104 0 L 67.104 175.167 L 10 175.167" fill="none" stroke-width="1" stroke-dasharray="none"/><g><g stroke-dasharray="none"><path d="M10,180.167L0,175.167L10,170.167z" stroke="none" fill-opacity="1"/></g></g></g></g><g width="90.262" height="15.625" transform="scale(1,1) translate(654.869,383.854)"><g stroke="#545454" stroke-opacity="1" stroke-width="0" stroke-dasharray="none" width="90.262" height="15.625" transform="scale(1,1) translate(0,0)" fill="none"><rect width="90.262" height="15.625"/></g><g width="90.26184844970703" height="15.624999046325684" transform="scale(1,1) translate(0,0)"><text width="90.26184844970703" height="15.624999046325684" transform="scale(1,1) translate(0,0)" xml:space="preserve"><tspan xml:space="preserve" text-rendering="optimizeSpeed" font-size="13.88888888888889" font-weight="normal" font-style="normal" text-decoration="none" fill="#333333" opacity="1" x="0" text-anchor="start" y="13.021" textLength="90.26184844970703" style="font-family: Arial, Helvetica Neue, Helvetica, sans-serif;">Create Course</tspan></text></g></g><g width="250" height="8.5" transform="scale(1,1) translate(691.667,495.833)"><g transform="scale(1,1) translate(0,0)" fill="#545454" stroke="#545454" stroke-opacity="1"><path d="M 250 8.5 L 250 0 L 10 0" fill="none" stroke-width="1" stroke-dasharray="none"/><g><g stroke-dasharray="none"><path d="M10,5L0,0L10,-5z" stroke="none" fill-opacity="1"/></g></g></g></g></g></svg>