<svg id="Layer_1" data-name="Layer 1" xmlns="http://www.w3.org/2000/svg" viewBox="0 0 1934.38 708.56"><defs><style>.cls-1{font-size:715px;font-family:CondeSansBold, Conde Sans;}.cls-2{fill:#00859b;}.cls-3{fill:#336dff;}.cls-4{fill:#e7eef9;}.cls-5{fill:#21a7d0;}</style></defs><title>logo</title><text class="cls-1" transform="translate(518.02 595.59)">Shikhboamra</text><path class="cls-2" d="M34.76,1075.39A1191.08,1191.08,0,0,1,74,1286.91c66.42,15.54,134.06,40.27,188.4,82.85,0-66.31,0-222.53,0-222.53s-36.81-30.61-85.67-47.94C131.22,1083.15,83,1074,34.76,1075.39Z" transform="translate(-34.76 -710.77)"/><path class="cls-3" d="M262.39,1140.44s-66.72-68.59-207.34-74.08l-5.44-23.09S213.76,1053.06,262.39,1140.44Z" transform="translate(-34.76 -710.77)"/><path class="cls-4" d="M262.39,1128.26s-54.17-80.51-193.4-94.55l-4.43-22.15S197.51,1024.11,262.39,1128.26Z" transform="translate(-34.76 -710.77)"/><path class="cls-5" d="M490,1075.4a1191.08,1191.08,0,0,0-39.23,211.52c-66.42,15.53-134.06,40.27-188.4,82.85,0-66.32,0-222.54,0-222.54s36.81-30.6,85.67-47.93C393.57,1083.15,441.74,1074,490,1075.4Z" transform="translate(-34.76 -710.77)"/><path class="cls-3" d="M262.39,1140.45s66.72-68.59,207.34-74.08l5.44-23.09S311,1053.07,262.39,1140.45Z" transform="translate(-34.76 -710.77)"/><path class="cls-4" d="M262.39,1128.26s54.17-80.51,193.4-94.54l4.43-22.16S327.27,1024.12,262.39,1128.26Z" transform="translate(-34.76 -710.77)"/><path class="cls-3" d="M212.45,1014.1a18.64,18.64,0,1,1,18.64-18.64A18.66,18.66,0,0,1,212.45,1014.1Zm0-32.18A13.55,13.55,0,1,0,226,995.46,13.56,13.56,0,0,0,212.45,981.92Z" transform="translate(-34.76 -710.77)"/><path class="cls-4" d="M367.08,998a24.25,24.25,0,1,1,24.25-24.25A24.28,24.28,0,0,1,367.08,998Zm0-43.39a19.15,19.15,0,1,0,19.15,19.14A19.17,19.17,0,0,0,367.08,954.62Z" transform="translate(-34.76 -710.77)"/><path class="cls-5" d="M128.49,993.31a9.59,9.59,0,1,1,9.59-9.58A9.6,9.6,0,0,1,128.49,993.31Zm0-14.08a4.49,4.49,0,1,0,4.49,4.5A4.5,4.5,0,0,0,128.49,979.23Z" transform="translate(-34.76 -710.77)"/><path class="cls-3" d="M305.65,922.42l-9.72-4.16a4.59,4.59,0,0,1-2.69-3.31l-2.09-10.37a4.58,4.58,0,0,0-7.93-2.11l-7,8a4.57,4.57,0,0,1-4,1.54l-10.51-1.22a4.58,4.58,0,0,0-4.46,6.89l5.42,9.08A4.54,4.54,0,0,1,263,931l-4.4,9.61a4.58,4.58,0,0,0,5.18,6.37l10.31-2.34a4.55,4.55,0,0,1,4.11,1.09l7.78,7.16a4.58,4.58,0,0,0,7.66-3l.95-10.53a4.59,4.59,0,0,1,2.32-3.58l9.21-5.19A4.57,4.57,0,0,0,305.65,922.42Z" transform="translate(-34.76 -710.77)"/><path class="cls-4" d="M186,848.48l-15.11,4.38a6.8,6.8,0,0,1-6.2-1.27l-12.18-10a6.8,6.8,0,0,0-11.11,5l-.5,15.72a6.79,6.79,0,0,1-3.13,5.51l-13.23,8.5A6.81,6.81,0,0,0,126,888.55l14.8,5.33a6.82,6.82,0,0,1,4.27,4.68l4,15.21a6.8,6.8,0,0,0,12,2.44l9.64-12.42a6.82,6.82,0,0,1,5.77-2.62l15.7.9a6.81,6.81,0,0,0,6-10.62l-8.84-13a6.82,6.82,0,0,1-.71-6.3l5.71-14.65A6.81,6.81,0,0,0,186,848.48Z" transform="translate(-34.76 -710.77)"/><path class="cls-5" d="M271.41,1045.25l-7.82,1.53a3.44,3.44,0,0,1-3.07-.91l-5.7-5.57a3.45,3.45,0,0,0-5.84,2l-.95,7.91a3.45,3.45,0,0,1-1.82,2.64l-7.06,3.7a3.45,3.45,0,0,0,.15,6.18l7.23,3.36a3.43,3.43,0,0,1,1.95,2.55l1.34,7.85a3.44,3.44,0,0,0,5.92,1.77l5.42-5.84a3.48,3.48,0,0,1,3-1.07l7.88,1.16a3.45,3.45,0,0,0,3.52-5.09l-3.88-7a3.47,3.47,0,0,1-.08-3.21l3.54-7.14A3.45,3.45,0,0,0,271.41,1045.25Z" transform="translate(-34.76 -710.77)"/><path class="cls-5" d="M466,918.73l-10.17-6.32a5.19,5.19,0,0,1-2.44-4.17l-.56-12a5.18,5.18,0,0,0-8.52-3.72l-9.16,7.71a5.18,5.18,0,0,1-4.71,1l-11.55-3.17a5.19,5.19,0,0,0-6.18,7l4.52,11.1a5.19,5.19,0,0,1-.48,4.8l-6.58,10a5.18,5.18,0,0,0,4.7,8l11.95-.86a5.16,5.16,0,0,1,4.42,1.93l7.48,9.35a5.19,5.19,0,0,0,9.09-2l2.87-11.63a5.19,5.19,0,0,1,3.2-3.61L465.05,928A5.19,5.19,0,0,0,466,918.73Z" transform="translate(-34.76 -710.77)"/><path class="cls-5" d="M308.42,988.38a4.66,4.66,0,1,1-4.65-4.66A4.66,4.66,0,0,1,308.42,988.38Z" transform="translate(-34.76 -710.77)"/><path class="cls-4" d="M96.11,914.19a4.66,4.66,0,1,1-4.65-4.65A4.65,4.65,0,0,1,96.11,914.19Z" transform="translate(-34.76 -710.77)"/><circle class="cls-4" cx="337.24" cy="180.55" r="9.58"/><circle class="cls-3" cx="159.44" cy="222.59" r="7.42"/></svg>